inDegrees=yes
name=ik_S56_A07_T01
DataType=double
version=3
OpenSimVersion=4.3-2021-08-27-4bc7ad9
endheader
time	pelvis_tilt	pelvis_list	pelvis_rotation	pelvis_tx	pelvis_ty	pelvis_tz	hip_flexion_r	hip_adduction_r	hip_rotation_r	knee_angle_r	knee_angle_r_beta	ankle_angle_r	subtalar_angle_r	mtp_angle_r	hip_flexion_l	hip_adduction_l	hip_rotation_l	knee_angle_l	knee_angle_l_beta	ankle_angle_l	subtalar_angle_l	mtp_angle_l	lumbar_extension	lumbar_bending	lumbar_rotation	arm_flex_r	arm_add_r	arm_rot_r	elbow_flex_r	pro_sup_r	wrist_flex_r	wrist_dev_r	arm_flex_l	arm_add_l	arm_rot_l	elbow_flex_l	pro_sup_l	wrist_flex_l	wrist_dev_l
6.01999999999996	-8.339931537367546	-2.651905216408426	20.82015182992968	0	0.9399999999999999	0	45.81693936729878	-9.930176036134316	-10.05935851640082	54.47023309056668	0.9506849117591551	0	0	0	45.81693936729878	-9.930176036134316	-10.05935851640082	54.47023309056668	0.9506849117591551	0	0	0	-7.979999587114841	0.4196313341904095	0.1631666480648758	47.92871724198721	-7.125958891334359	19.77962492477671	76.77009742793368	119.6603641689113	0	0	33.91523383627293	-4.001653443034509	10.09046165463556	44.50061184394134	142.3799387003318	0	0
6.039999999999959	-8.310943580215703	-2.679231916769475	21.22105938279269	0	0.9399999999999999	0	45.81648605521368	-9.930311543414025	-10.05928465452871	54.47042963326933	0.9506883420764373	0	0	0	45.81648605521368	-9.930311543414025	-10.05928465452871	54.47042963326933	0.9506883420764373	0	0	0	-7.968485899340172	0.4076592924997189	0.002142640273325392	48.72555228635437	-6.670337400438004	20.79545207307828	76.43925964120237	115.6579903131402	0	0	33.94569296222726	-3.914659531947656	10.07838697255574	44.38463562679436	142.5034968501561	0	0
6.059999999999959	-8.302383145306409	-2.696213276276561	21.3939398111735	0	0.9399999999999999	0	45.81606617956031	-9.930437034246337	-10.059216233518	54.47061151277037	0.9506915164725722	0	0	0	45.81606617956031	-9.930437034246337	-10.059216233518	54.47061151277037	0.9506915164725722	0	0	0	-7.970403072527981	0.4004565495078257	-0.07688566651622157	49.52500141476697	-6.175385990957603	21.60232914634669	75.44768462070967	115.4125198930493	0	0	33.98346707746923	-3.888564227475726	9.928487488945285	44.32704097217792	142.5369829193173	0	0
6.079999999999958	-8.284787034859994	-2.72659278894638	21.60875935967172	0	0.9399999999999999	0	45.81566932783536	-9.930555504668536	-10.05915160107075	54.47078343211658	0.9506945170312116	0	0	0	45.81566932783536	-9.930555504668536	-10.05915160107075	54.47078343211658	0.9506945170312116	0	0	0	-7.967527524072626	0.3728337294838417	-0.1256184363951341	50.11831239852134	-5.674016386421857	22.36045586855982	74.52289705580803	114.3990279376574	0	0	34.01670857180738	-3.883784055531881	9.881870013009015	44.28722912786814	142.4192563242278	0	0
6.099999999999958	-8.261422819963306	-2.764287063441473	21.79140544615872	0	0.9399999999999999	0	45.81540867455726	-9.930633090557425	-10.05910922546224	54.47089657496249	0.9506964917463976	0	0	0	45.81540867455726	-9.930633090557425	-10.05910922546224	54.47089657496249	0.9506964917463976	0	0	0	-7.962902348246626	0.3396039901047734	-0.1958401720147892	50.58644336597372	-5.192401516307009	23.09948313637067	73.61429704078986	113.2512237901858	0	0	34.02794586291328	-3.938337175260735	9.83784079551938	44.28016568872498	142.3908882438249	0	0
6.119999999999957	-8.259155283736531	-2.804757452632794	21.98399802386948	0	0.9399999999999999	0	45.81508570768604	-9.930728102268413	-10.059057116798	54.4710382021271	0.9506989636067303	0	0	0	45.81508570768604	-9.930728102268413	-10.059057116798	54.4710382021271	0.9506989636067303	0	0	0	-7.976135640070027	0.3035088040303585	-0.2083769393884556	50.58492395241477	-5.247689718764544	22.99841109506652	73.3112172842653	112.0418463441965	0	0	34.07593369184477	-3.92403414676589	10.04003696238537	44.28152514227047	142.2809160022183	0	0
6.139999999999957	-8.266215565577038	-2.841599375984851	22.16021035095843	0	0.9399999999999999	0	45.81473676450896	-9.930831788134054	-10.05900043431849	54.4711896747121	0.9507016073020651	0	0	0	45.81473676450896	-9.930831788134054	-10.05900043431849	54.4711896747121	0.9507016073020651	0	0	0	-8.000311316803483	0.2841685262730472	-0.2880365303003796	51.0467397374174	-4.876271094427015	23.61911462211124	72.38663998863686	110.587841827709	0	0	34.14473325964495	-3.939295423199778	10.02909235503851	44.28805499320308	142.2257227635865	0	0
6.159999999999957	-8.26201391894724	-2.910541537499456	22.29304069198498	0	0.9399999999999999	0	45.8145300987121	-9.930892100066227	-10.05896725581287	54.4712808369199	0.9507031983827446	0	0	0	45.8145300987121	-9.930892100066227	-10.05896725581287	54.4712808369199	0.9507031983827446	0	0	0	-8.023190571182322	0.2226107196966952	-0.3150253939498561	51.03733861815822	-4.829620943620651	23.50709789601121	72.06146130984045	109.6048269093522	0	0	34.18392107064848	-3.983913364964388	10.11010090077442	44.26792291751507	142.245048330885	0	0
6.179999999999956	-8.297047365437571	-2.94464579357081	22.46823145146126	0	0.9399999999999999	0	45.81410739827648	-9.931017588491923	-10.05889861291216	54.47146421299143	0.9507063988989621	0	0	0	45.81410739827648	-9.931017588491923	-10.05889861291216	54.47146421299143	0.9507063988989621	0	0	0	-8.074963100648629	0.2236303873030718	-0.4361805124230987	51.62374159456906	-4.250650597880099	24.47207870224761	70.92054581506912	108.5099204298317	0	0	34.28579090194744	-3.95743862057735	10.14398824531964	44.27882967611541	142.1198207068916	0	0
6.199999999999956	-8.322909760245679	-3.052814241959097	22.66282848957704	0	0.9399999999999999	0	45.81380479911943	-9.931107031083368	-10.05884960673843	54.47159591738024	0.9507086975741863	0	0	0	45.81380479911943	-9.931107031083368	-10.05884960673843	54.47159591738024	0.9507086975741863	0	0	0	-8.14587946996112	0.153348177571302	-0.5634871659063391	51.70294608400781	-3.683281406562181	25.00655011707122	70.06823836213819	106.6170125465297	0	0	34.42492815152886	-4.069906017506635	10.28047356520849	44.28603549156492	142.010427274523	0	0
6.219999999999955	-8.371638883483646	-3.107629989356863	22.73376491816709	0	0.9399999999999999	0	45.81346440370149	-9.931207360450951	-10.05879457338714	54.47174434273798	0.9507112880853723	0	0	0	45.81346440370149	-9.931207360450951	-10.05879457338714	54.47174434273798	0.9507112880853723	0	0	0	-8.213819196549775	0.1275437462396458	-0.5997973063007581	51.75972227293114	-3.48942742567495	25.15852284939444	69.73071674101992	105.8907771123767	0	0	34.5383297134985	-4.051779164487457	10.43613921473804	44.31812042406036	141.8688270758558	0	0
6.239999999999955	-8.392751179733613	-3.169593264978079	22.76430768553007	0	0.9399999999999999	0	45.81323665862552	-9.931274544459148	-10.05875772734674	54.47184350862426	0.9507130188565935	0	0	0	45.81323665862552	-9.931274544459148	-10.05875772734674	54.47184350862426	0.9507130188565935	0	0	0	-8.258523914351871	0.08283411799031572	-0.6287054284928744	51.720943877557	-3.252749436016165	25.18621801812317	69.7315906401594	106.0179784929221	0	0	34.62966618773042	-4.129853454175359	10.48507151659561	44.3374004604577	141.7932969559422	0	0
6.259999999999954	-8.397848384331095	-3.233468450205648	22.78091539705813	0	0.9399999999999999	0	45.81295139881466	-9.93135803010715	-10.05871181316585	54.47196858383155	0.9507152018307733	0	0	0	45.81295139881466	-9.93135803010715	-10.05871181316585	54.47196858383155	0.9507152018307733	0	0	0	-8.290556144887915	0.03456033407147843	-0.6827873796529909	51.61518525333899	-2.952956673446887	25.27401930242112	69.49318048939267	105.1473746531999	0	0	34.63620264344733	-4.148003239114657	10.62051577983574	44.40241557637646	141.6824271813544	0	0
6.279999999999954	-8.421585702753932	-3.250661532974744	22.78539242632364	0	0.9399999999999999	0	45.81289089304354	-9.931375285093917	-10.05870223852165	54.47199573851307	0.9507156757693731	0	0	0	45.81289089304354	-9.931375285093917	-10.05870223852165	54.47199573851307	0.9507156757693731	0	0	0	-8.319319302034518	0.02862727156422381	-0.6871279732220799	51.5830017029748	-2.886601324955101	25.30352215380867	69.50493267307263	105.1663640525637	0	0	34.67827811571981	-4.110001668198937	10.66349939927178	44.41107521845493	141.6855777785337	0	0
6.299999999999954	-8.432213788080222	-3.30093809499023	22.75001428412822	0	0.9399999999999999	0	45.81265095589979	-9.931445282423207	-10.05866369458072	54.47210117216038	0.9507175159336612	0	0	0	45.81265095589979	-9.931445282423207	-10.05866369458072	54.47210117216038	0.9507175159336612	0	0	0	-8.350420825877551	-0.007547333647965911	-0.7258156650380337	51.60022706175688	-2.755939970189391	25.36050782115622	69.57388153630684	104.9378607677099	0	0	34.72850362952143	-4.171387025012362	10.65023802482659	44.44358770668291	141.6058417401451	0	0
6.319999999999953	-8.452215484032985	-3.331380437780269	22.70741146660357	0	0.9399999999999999	0	45.81250668765496	-9.9314868439265	-10.05864070639286	54.47216524752614	0.950718634259763	0	0	0	45.81250668765496	-9.9314868439265	-10.05864070639286	54.47216524752614	0.950718634259763	0	0	0	-8.381419865040286	-0.02554935734216391	-0.7422213929824403	51.71363247513212	-2.68397818021284	25.40683059644054	69.6490248096604	105.2223250699075	0	0	34.78585758562048	-4.177526851409649	10.60985755518061	44.4670421296535	141.5892525726267	0	0
